<svg width="18.000000" height="18.000000" viewBox="0 0 18 18" fill="none" xmlns="http://www.w3.org/2000/svg" xmlns:xlink="http://www.w3.org/1999/xlink">
	<desc>
			Created with Pixso.
	</desc>
	<defs>
		<clipPath id="clip25_144">
			<rect id="normal" width="18.000000" height="18.000000" fill="white" fill-opacity="0"/>
		</clipPath>
	</defs>
	<rect id="normal" width="18.000000" height="18.000000" fill="#FFFFFF" fill-opacity="0"/>
	<g clip-path="url(#clip25_144)">
		<path id="Vector" d="M14.2915 2.56287C13.791 2.35541 13.2544 2.24866 12.7126 2.24866C12.1707 2.24866 11.6343 2.35541 11.1335 2.56287C10.6331 2.77026 10.1782 3.07428 9.79517 3.45752L9 4.2525L8.20508 3.45752C7.4314 2.68378 6.38184 2.24908 5.2876 2.24908C4.19336 2.24908 3.1438 2.68378 2.37012 3.45752C1.59644 4.23132 1.16162 5.28076 1.16162 6.375C1.16162 7.4693 1.59644 8.51874 2.37012 9.29254L3.16504 10.0875L9 15.9225L14.8352 10.0875L15.6301 9.29254C16.0134 8.90948 16.3174 8.45465 16.5247 7.95404C16.7322 7.45343 16.8389 6.91687 16.8389 6.375C16.8389 5.83319 16.7322 5.29663 16.5247 4.79602C16.3174 4.29541 16.0134 3.84058 15.6301 3.45752C15.2471 3.07428 14.7922 2.77026 14.2915 2.56287Z" stroke="#FFFFFF" stroke-opacity="0.800000" stroke-width="1.500000" stroke-linejoin="round"/>
	</g>
</svg>
